<svg width="33" height="33" viewBox="0 0 33 33" fill="none" xmlns="http://www.w3.org/2000/svg">
<g id="person_24px" opacity="0.8">
<path id="icon/social/person_24px" fill-rule="evenodd" clip-rule="evenodd" d="M16.5 5.5C13.4613 5.5 11 7.96125 11 11C11 14.0387 13.4613 16.5 16.5 16.5C19.5388 16.5 22 14.0387 22 11C22 7.96125 19.5388 5.5 16.5 5.5ZM19.25 11C19.25 9.4875 18.0125 8.25 16.5 8.25C14.9875 8.25 13.75 9.4875 13.75 11C13.75 12.5125 14.9875 13.75 16.5 13.75C18.0125 13.75 19.25 12.5125 19.25 11ZM24.75 24.75C24.475 23.7738 20.2125 22 16.5 22C12.8012 22 8.56625 23.76 8.25 24.75H24.75ZM5.5 24.75C5.5 21.0925 12.8287 19.25 16.5 19.25C20.1712 19.25 27.5 21.0925 27.5 24.75V27.5H5.5V24.75Z" fill="black" fill-opacity="0.54"/>
</g>
</svg>
