<svg width="33" height="33" viewBox="0 0 33 33" fill="none" xmlns="http://www.w3.org/2000/svg">
<g id="vpn_key_24px" opacity="0.8">
<path id="icon/communication/vpn_key_24px" fill-rule="evenodd" clip-rule="evenodd" d="M22 26.125H30.25V20.625H33V12.375H18.315C16.7337 9.0475 13.365 6.875 9.625 6.875C4.3175 6.875 0 11.1925 0 16.5C0 21.8075 4.3175 26.125 9.625 26.125C13.365 26.125 16.7475 23.9525 18.315 20.625H22V26.125ZM27.5 23.375H24.75V17.875H16.4175L16.1012 18.7963C15.1388 21.5325 12.5262 23.375 9.625 23.375C5.83 23.375 2.75 20.295 2.75 16.5C2.75 12.705 5.83 9.625 9.625 9.625C12.5262 9.625 15.1388 11.4675 16.1012 14.2037L16.4175 15.125H30.25V17.875H27.5V23.375ZM9.625 20.625C7.35625 20.625 5.5 18.7688 5.5 16.5C5.5 14.2312 7.35625 12.375 9.625 12.375C11.8938 12.375 13.75 14.2312 13.75 16.5C13.75 18.7688 11.8938 20.625 9.625 20.625ZM8.25 16.5C8.25 15.7437 8.86875 15.125 9.625 15.125C10.3813 15.125 11 15.7437 11 16.5C11 17.2563 10.3813 17.875 9.625 17.875C8.86875 17.875 8.25 17.2563 8.25 16.5Z" fill="black" fill-opacity="0.54"/>
</g>
</svg>
